<?xml version="1.0" standalone="no"?>
<!DOCTYPE svg PUBLIC "-//W3C//DTD SVG 20010904//EN"
 "http://www.w3.org/TR/2001/REC-SVG-20010904/DTD/svg10.dtd">
<svg version="1.0" xmlns="http://www.w3.org/2000/svg"
 width="400.000000pt" height="480.000000pt" viewBox="0 0 400.000000 480.000000"
 preserveAspectRatio="xMidYMid meet">
<metadata>
Created by potrace 1.11, written by Peter Selinger 2001-2013
</metadata>
<g transform="translate(0.000000,480.000000) scale(0.100000,-0.100000)"
fill="#000000" stroke="none">
<path d="M1495 4499 c-85 -25 -333 -139 -444 -205 -45 -26 -107 -70 -137 -97
-136 -121 -363 -466 -417 -632 -9 -27 -32 -115 -51 -195 -19 -80 -50 -207 -70
-282 -24 -92 -41 -189 -51 -295 -15 -146 -34 -261 -51 -308 -4 -11 -24 -42
-45 -68 -21 -27 -41 -65 -45 -84 -12 -66 4 -165 46 -282 50 -140 57 -173 75
-325 16 -129 42 -201 90 -246 24 -23 28 -23 73 -10 106 30 110 29 183 -47 36
-37 91 -111 121 -163 31 -52 81 -129 111 -171 30 -42 81 -120 113 -175 107
-183 267 -315 464 -385 63 -22 161 -60 217 -85 131 -57 184 -67 307 -62 80 4
115 10 166 32 36 15 98 41 139 57 40 17 135 44 210 60 159 36 196 51 217 91
19 37 12 72 -32 159 -67 134 -224 301 -499 531 -307 256 -362 340 -266 405 71
48 198 40 455 -28 448 -118 668 -170 811 -193 88 -14 176 -30 195 -36 66 -19
95 -13 130 27 50 57 70 112 85 241 17 150 25 184 75 323 42 117 58 216 46 282
-4 19 -24 57 -45 84 -21 26 -41 57 -45 68 -17 47 -36 162 -51 308 -10 106 -27
203 -51 295 -20 75 -51 202 -70 282 -43 183 -57 226 -107 325 -76 152 -262
412 -356 497 -75 68 -186 134 -370 219 -238 110 -230 109 -676 108 -348 0
-386 -2 -450 -20z m935 -48 c99 -36 377 -173 447 -220 85 -58 182 -165 292
-322 153 -222 179 -282 271 -652 64 -260 81 -345 94 -472 20 -199 49 -326 85
-368 52 -61 61 -80 61 -132 0 -65 -19 -145 -64 -270 -35 -101 -66 -246 -66
-315 0 -50 -23 -124 -54 -171 -28 -42 -57 -49 -111 -29 -14 5 -83 19 -153 29
-190 30 -337 63 -642 145 -338 91 -402 105 -499 113 -157 12 -277 -61 -255
-155 20 -81 76 -141 329 -355 306 -259 425 -388 496 -541 27 -57 30 -71 20
-92 -14 -31 -38 -40 -181 -70 -147 -31 -162 -36 -300 -97 l-115 -52 -135 1
-135 0 -95 43 c-52 23 -156 65 -230 92 -74 27 -158 65 -188 85 -94 62 -203
175 -256 265 -27 46 -86 138 -131 204 -44 66 -103 158 -130 204 -31 52 -75
107 -118 147 -59 56 -72 64 -107 64 -22 0 -58 -7 -80 -16 -22 -9 -46 -14 -54
-11 -31 12 -67 112 -77 213 -12 122 -39 239 -79 341 -51 134 -65 257 -33 303
9 14 29 39 44 57 36 42 66 172 85 367 12 125 28 207 94 471 69 278 86 333 129
420 61 124 212 343 303 441 87 93 155 138 347 231 283 138 252 132 731 130
389 -2 396 -2 460 -26z"/>
</g>
</svg>
